<mxfile host="Electron" modified="2024-05-03T09:07:47.723Z" agent="Mozilla/5.0 (Windows NT 10.0; Win64; x64) AppleWebKit/537.36 (KHTML, like Gecko) draw.io/24.2.5 Chrome/120.0.6099.109 Electron/28.1.0 Safari/537.36" etag="0vb9imyXW-fux1yoopLl" version="24.2.5" type="device">
  <diagram id="C5RBs43oDa-KdzZeNtuy" name="Page-1">
    <mxGraphModel dx="1434" dy="844" grid="1" gridSize="10" guides="1" tooltips="1" connect="1" arrows="1" fold="1" page="1" pageScale="1" pageWidth="827" pageHeight="1169" math="0" shadow="0">
      <root>
        <mxCell id="WIyWlLk6GJQsqaUBKTNV-0" />
        <mxCell id="WIyWlLk6GJQsqaUBKTNV-1" parent="WIyWlLk6GJQsqaUBKTNV-0" />
        <mxCell id="0CLc59LkIKmxqNBZDnAn-5" value="" style="edgeStyle=orthogonalEdgeStyle;rounded=0;orthogonalLoop=1;jettySize=auto;html=1;" parent="WIyWlLk6GJQsqaUBKTNV-1" source="0CLc59LkIKmxqNBZDnAn-0" target="0CLc59LkIKmxqNBZDnAn-4" edge="1">
          <mxGeometry relative="1" as="geometry" />
        </mxCell>
        <mxCell id="0CLc59LkIKmxqNBZDnAn-0" value="Piece generates all of its possible moves" style="rounded=0;whiteSpace=wrap;html=1;" parent="WIyWlLk6GJQsqaUBKTNV-1" vertex="1">
          <mxGeometry x="353" y="130" width="120" height="60" as="geometry" />
        </mxCell>
        <mxCell id="0CLc59LkIKmxqNBZDnAn-3" style="edgeStyle=orthogonalEdgeStyle;rounded=0;orthogonalLoop=1;jettySize=auto;html=1;entryX=0.5;entryY=0;entryDx=0;entryDy=0;" parent="WIyWlLk6GJQsqaUBKTNV-1" source="0CLc59LkIKmxqNBZDnAn-2" target="0CLc59LkIKmxqNBZDnAn-0" edge="1">
          <mxGeometry relative="1" as="geometry" />
        </mxCell>
        <mxCell id="0CLc59LkIKmxqNBZDnAn-2" value="Player chooses a piece to move" style="strokeWidth=2;html=1;shape=mxgraph.flowchart.terminator;whiteSpace=wrap;" parent="WIyWlLk6GJQsqaUBKTNV-1" vertex="1">
          <mxGeometry x="344" y="30" width="138" height="60" as="geometry" />
        </mxCell>
        <mxCell id="0CLc59LkIKmxqNBZDnAn-11" value="" style="edgeStyle=orthogonalEdgeStyle;rounded=0;orthogonalLoop=1;jettySize=auto;html=1;" parent="WIyWlLk6GJQsqaUBKTNV-1" source="0CLc59LkIKmxqNBZDnAn-4" target="0CLc59LkIKmxqNBZDnAn-10" edge="1">
          <mxGeometry relative="1" as="geometry" />
        </mxCell>
        <mxCell id="0CLc59LkIKmxqNBZDnAn-4" value="Get the boards position if the move was played" style="rounded=0;whiteSpace=wrap;html=1;" parent="WIyWlLk6GJQsqaUBKTNV-1" vertex="1">
          <mxGeometry x="353" y="230" width="120" height="60" as="geometry" />
        </mxCell>
        <mxCell id="0CLc59LkIKmxqNBZDnAn-13" value="" style="edgeStyle=orthogonalEdgeStyle;rounded=0;orthogonalLoop=1;jettySize=auto;html=1;" parent="WIyWlLk6GJQsqaUBKTNV-1" source="0CLc59LkIKmxqNBZDnAn-10" target="0CLc59LkIKmxqNBZDnAn-12" edge="1">
          <mxGeometry relative="1" as="geometry" />
        </mxCell>
        <mxCell id="0CLc59LkIKmxqNBZDnAn-21" value="" style="edgeStyle=orthogonalEdgeStyle;rounded=0;orthogonalLoop=1;jettySize=auto;html=1;" parent="WIyWlLk6GJQsqaUBKTNV-1" source="0CLc59LkIKmxqNBZDnAn-10" target="0CLc59LkIKmxqNBZDnAn-20" edge="1">
          <mxGeometry relative="1" as="geometry" />
        </mxCell>
        <mxCell id="0CLc59LkIKmxqNBZDnAn-10" value="Is player&#39;s king in check?" style="rhombus;whiteSpace=wrap;html=1;rounded=0;" parent="WIyWlLk6GJQsqaUBKTNV-1" vertex="1">
          <mxGeometry x="355" y="360" width="117" height="90" as="geometry" />
        </mxCell>
        <mxCell id="0CLc59LkIKmxqNBZDnAn-16" value="" style="edgeStyle=orthogonalEdgeStyle;rounded=0;orthogonalLoop=1;jettySize=auto;html=1;" parent="WIyWlLk6GJQsqaUBKTNV-1" source="0CLc59LkIKmxqNBZDnAn-12" target="0CLc59LkIKmxqNBZDnAn-15" edge="1">
          <mxGeometry relative="1" as="geometry" />
        </mxCell>
        <mxCell id="0CLc59LkIKmxqNBZDnAn-23" style="edgeStyle=orthogonalEdgeStyle;rounded=0;orthogonalLoop=1;jettySize=auto;html=1;entryX=1;entryY=0.5;entryDx=0;entryDy=0;" parent="WIyWlLk6GJQsqaUBKTNV-1" source="0CLc59LkIKmxqNBZDnAn-12" target="0CLc59LkIKmxqNBZDnAn-4" edge="1">
          <mxGeometry relative="1" as="geometry">
            <Array as="points">
              <mxPoint x="530" y="579" />
              <mxPoint x="530" y="260" />
            </Array>
          </mxGeometry>
        </mxCell>
        <mxCell id="0CLc59LkIKmxqNBZDnAn-12" value="Have all the possible moves been tested?" style="rhombus;whiteSpace=wrap;html=1;rounded=0;" parent="WIyWlLk6GJQsqaUBKTNV-1" vertex="1">
          <mxGeometry x="346.5" y="524.5" width="135" height="110" as="geometry" />
        </mxCell>
        <mxCell id="0CLc59LkIKmxqNBZDnAn-32" value="" style="edgeStyle=orthogonalEdgeStyle;rounded=0;orthogonalLoop=1;jettySize=auto;html=1;" parent="WIyWlLk6GJQsqaUBKTNV-1" source="0CLc59LkIKmxqNBZDnAn-15" target="0CLc59LkIKmxqNBZDnAn-31" edge="1">
          <mxGeometry relative="1" as="geometry" />
        </mxCell>
        <mxCell id="0CLc59LkIKmxqNBZDnAn-15" value="Highlight the board tiles that are validated moves" style="whiteSpace=wrap;html=1;rounded=0;" parent="WIyWlLk6GJQsqaUBKTNV-1" vertex="1">
          <mxGeometry x="354" y="670" width="120" height="60" as="geometry" />
        </mxCell>
        <mxCell id="0CLc59LkIKmxqNBZDnAn-19" value="Move the piece to the chosen square" style="strokeWidth=2;html=1;shape=mxgraph.flowchart.terminator;whiteSpace=wrap;" parent="WIyWlLk6GJQsqaUBKTNV-1" vertex="1">
          <mxGeometry x="345" y="1070" width="138" height="60" as="geometry" />
        </mxCell>
        <mxCell id="0CLc59LkIKmxqNBZDnAn-22" style="edgeStyle=orthogonalEdgeStyle;rounded=0;orthogonalLoop=1;jettySize=auto;html=1;entryX=0;entryY=0.5;entryDx=0;entryDy=0;" parent="WIyWlLk6GJQsqaUBKTNV-1" source="0CLc59LkIKmxqNBZDnAn-20" target="0CLc59LkIKmxqNBZDnAn-12" edge="1">
          <mxGeometry relative="1" as="geometry">
            <Array as="points">
              <mxPoint x="250" y="580" />
              <mxPoint x="326" y="580" />
            </Array>
          </mxGeometry>
        </mxCell>
        <mxCell id="0CLc59LkIKmxqNBZDnAn-20" value="Save tile&amp;nbsp;&lt;span style=&quot;background-color: initial;&quot;&gt;as a valid move&lt;/span&gt;" style="whiteSpace=wrap;html=1;rounded=0;" parent="WIyWlLk6GJQsqaUBKTNV-1" vertex="1">
          <mxGeometry x="190" y="460" width="120" height="60" as="geometry" />
        </mxCell>
        <mxCell id="0CLc59LkIKmxqNBZDnAn-25" value="Yes" style="text;strokeColor=none;align=center;fillColor=none;html=1;verticalAlign=middle;whiteSpace=wrap;rounded=0;" parent="WIyWlLk6GJQsqaUBKTNV-1" vertex="1">
          <mxGeometry x="414" y="450" width="30" height="20" as="geometry" />
        </mxCell>
        <mxCell id="0CLc59LkIKmxqNBZDnAn-26" value="No" style="text;strokeColor=none;align=center;fillColor=none;html=1;verticalAlign=middle;whiteSpace=wrap;rounded=0;" parent="WIyWlLk6GJQsqaUBKTNV-1" vertex="1">
          <mxGeometry x="330" y="390" width="30" height="20" as="geometry" />
        </mxCell>
        <mxCell id="0CLc59LkIKmxqNBZDnAn-27" value="Yes" style="text;strokeColor=none;align=center;fillColor=none;html=1;verticalAlign=middle;whiteSpace=wrap;rounded=0;" parent="WIyWlLk6GJQsqaUBKTNV-1" vertex="1">
          <mxGeometry x="414" y="634.5" width="30" height="20" as="geometry" />
        </mxCell>
        <mxCell id="0CLc59LkIKmxqNBZDnAn-28" value="No" style="text;strokeColor=none;align=center;fillColor=none;html=1;verticalAlign=middle;whiteSpace=wrap;rounded=0;" parent="WIyWlLk6GJQsqaUBKTNV-1" vertex="1">
          <mxGeometry x="482" y="560" width="30" height="20" as="geometry" />
        </mxCell>
        <mxCell id="0CLc59LkIKmxqNBZDnAn-36" value="" style="edgeStyle=orthogonalEdgeStyle;rounded=0;orthogonalLoop=1;jettySize=auto;html=1;" parent="WIyWlLk6GJQsqaUBKTNV-1" source="0CLc59LkIKmxqNBZDnAn-31" edge="1">
          <mxGeometry relative="1" as="geometry">
            <mxPoint x="414" y="910" as="targetPoint" />
          </mxGeometry>
        </mxCell>
        <mxCell id="0CLc59LkIKmxqNBZDnAn-31" value="Player chooses a square to move to piece to" style="whiteSpace=wrap;html=1;rounded=0;" parent="WIyWlLk6GJQsqaUBKTNV-1" vertex="1">
          <mxGeometry x="354" y="790" width="120" height="60" as="geometry" />
        </mxCell>
        <mxCell id="0CLc59LkIKmxqNBZDnAn-38" value="" style="edgeStyle=orthogonalEdgeStyle;rounded=0;orthogonalLoop=1;jettySize=auto;html=1;" parent="WIyWlLk6GJQsqaUBKTNV-1" source="0CLc59LkIKmxqNBZDnAn-37" target="0CLc59LkIKmxqNBZDnAn-19" edge="1">
          <mxGeometry relative="1" as="geometry" />
        </mxCell>
        <mxCell id="0CLc59LkIKmxqNBZDnAn-39" style="edgeStyle=orthogonalEdgeStyle;rounded=0;orthogonalLoop=1;jettySize=auto;html=1;entryX=1;entryY=0.5;entryDx=0;entryDy=0;" parent="WIyWlLk6GJQsqaUBKTNV-1" source="0CLc59LkIKmxqNBZDnAn-37" target="0CLc59LkIKmxqNBZDnAn-31" edge="1">
          <mxGeometry relative="1" as="geometry">
            <mxPoint x="414" y="750" as="targetPoint" />
            <Array as="points">
              <mxPoint x="571" y="965" />
              <mxPoint x="571" y="820" />
            </Array>
          </mxGeometry>
        </mxCell>
        <mxCell id="0CLc59LkIKmxqNBZDnAn-37" value="Is the chosen move in the valid moves list?" style="rhombus;whiteSpace=wrap;html=1;rounded=0;" parent="WIyWlLk6GJQsqaUBKTNV-1" vertex="1">
          <mxGeometry x="346.5" y="910" width="135" height="110" as="geometry" />
        </mxCell>
        <mxCell id="0CLc59LkIKmxqNBZDnAn-40" value="Yes" style="text;strokeColor=none;align=center;fillColor=none;html=1;verticalAlign=middle;whiteSpace=wrap;rounded=0;" parent="WIyWlLk6GJQsqaUBKTNV-1" vertex="1">
          <mxGeometry x="414" y="1020" width="30" height="20" as="geometry" />
        </mxCell>
        <mxCell id="0CLc59LkIKmxqNBZDnAn-41" value="No" style="text;strokeColor=none;align=center;fillColor=none;html=1;verticalAlign=middle;whiteSpace=wrap;rounded=0;" parent="WIyWlLk6GJQsqaUBKTNV-1" vertex="1">
          <mxGeometry x="481.5" y="940" width="30" height="20" as="geometry" />
        </mxCell>
        <mxCell id="dGAmtnvBJLPPJc4k7Ywc-0" value="&lt;b&gt;TPI - Unity chess game&lt;/b&gt;&lt;div style=&quot;font-size: 11px;&quot;&gt;&lt;font style=&quot;font-size: 11px;&quot;&gt;By: Arthur Bottemanne&lt;/font&gt;&lt;/div&gt;&lt;div style=&quot;font-size: 11px;&quot;&gt;&lt;font style=&quot;font-size: 11px;&quot;&gt;Date: 03.05.2024&lt;/font&gt;&lt;/div&gt;&lt;div style=&quot;font-size: 11px;&quot;&gt;&lt;font style=&quot;font-size: 11px;&quot;&gt;Description: Flow diagram represeting how chess moves are made&amp;nbsp;&lt;/font&gt;&lt;/div&gt;" style="rounded=0;whiteSpace=wrap;html=1;" parent="WIyWlLk6GJQsqaUBKTNV-1" vertex="1">
          <mxGeometry x="100" y="1039" width="180" height="91" as="geometry" />
        </mxCell>
      </root>
    </mxGraphModel>
  </diagram>
</mxfile>
